<svg xmlns="http://www.w3.org/2000/svg" viewBox="0 0 1200 340" width="1200" height="340" role="img" aria-label="Depot — armored package cache">
  <title>Depot — armored package cache</title>
  <defs>
    <linearGradient id="bg" x1="0" y1="0" x2="1" y2="1">
      <stop offset="0%" stop-color="#071016"/>
      <stop offset="55%" stop-color="#0b1620"/>
      <stop offset="100%" stop-color="#16120b"/>
    </linearGradient>
    <linearGradient id="amber" x1="0" y1="0" x2="1" y2="1">
      <stop offset="0%" stop-color="#ffd166"/>
      <stop offset="100%" stop-color="#f59e0b"/>
    </linearGradient>
    <linearGradient id="cyan" x1="0" y1="0" x2="1" y2="1">
      <stop offset="0%" stop-color="#67e8f9"/>
      <stop offset="100%" stop-color="#0891b2"/>
    </linearGradient>
    <clipPath id="frame">
      <rect width="1200" height="340" rx="18"/>
    </clipPath>
    <filter id="glow" x="-20%" y="-20%" width="140%" height="140%">
      <feGaussianBlur stdDeviation="6" result="blur"/>
      <feMerge>
        <feMergeNode in="blur"/>
        <feMergeNode in="SourceGraphic"/>
      </feMerge>
    </filter>
  </defs>
  <g clip-path="url(#frame)">
    <rect width="1200" height="340" fill="url(#bg)"/>
    <g opacity="0.18">
      <path d="M0 74H1200M0 122H1200M0 170H1200M0 218H1200M0 266H1200" stroke="#7dd3fc" stroke-width="2"/>
      <path d="M110 0V340M206 0V340M302 0V340M398 0V340M494 0V340M590 0V340M686 0V340M782 0V340M878 0V340M974 0V340M1070 0V340" stroke="#fbbf24" stroke-width="2"/>
    </g>
    <rect x="72" y="52" width="1056" height="236" rx="10" fill="#08111a" stroke="#1f3a4a" stroke-width="4"/>
    <g transform="translate(128 73)" shape-rendering="crispEdges">
      <rect x="0" y="168" width="944" height="24" fill="#172554"/>
      <rect x="24" y="144" width="896" height="24" fill="#1e3a5f"/>
      <rect x="72" y="120" width="168" height="24" fill="#334155"/>
      <rect x="264" y="120" width="168" height="24" fill="#334155"/>
      <rect x="456" y="120" width="168" height="24" fill="#334155"/>
      <rect x="648" y="120" width="168" height="24" fill="#334155"/>
      <rect x="840" y="120" width="80" height="24" fill="#334155"/>

      <rect x="104" y="64" width="104" height="56" fill="#0f766e"/>
      <rect x="120" y="48" width="72" height="16" fill="#2dd4bf"/>
      <rect x="120" y="80" width="72" height="16" fill="#67e8f9"/>
      <rect x="136" y="96" width="40" height="24" fill="#164e63"/>

      <rect x="296" y="64" width="104" height="56" fill="#78350f"/>
      <rect x="312" y="48" width="72" height="16" fill="#f59e0b"/>
      <rect x="312" y="80" width="72" height="16" fill="#fbbf24"/>
      <rect x="328" y="96" width="40" height="24" fill="#451a03"/>

      <rect x="488" y="64" width="104" height="56" fill="#1d4ed8"/>
      <rect x="504" y="48" width="72" height="16" fill="#38bdf8"/>
      <rect x="504" y="80" width="72" height="16" fill="#93c5fd"/>
      <rect x="520" y="96" width="40" height="24" fill="#1e3a8a"/>

      <rect x="680" y="64" width="104" height="56" fill="#7c2d12"/>
      <rect x="696" y="48" width="72" height="16" fill="#fb923c"/>
      <rect x="696" y="80" width="72" height="16" fill="#fdba74"/>
      <rect x="712" y="96" width="40" height="24" fill="#431407"/>

      <rect x="336" y="0" width="272" height="24" fill="#475569"/>
      <rect x="312" y="24" width="320" height="24" fill="#64748b"/>
      <rect x="288" y="48" width="368" height="24" fill="#94a3b8"/>
      <rect x="336" y="72" width="272" height="24" fill="#0f172a"/>
      <rect x="384" y="72" width="32" height="24" fill="#67e8f9"/>
      <rect x="528" y="72" width="32" height="24" fill="#fbbf24"/>
      <rect x="384" y="96" width="176" height="24" fill="#111827"/>
      <rect x="432" y="24" width="80" height="24" fill="#f8fafc"/>
      <rect x="456" y="0" width="32" height="24" fill="#f8fafc"/>

      <rect x="16" y="24" width="40" height="24" fill="#67e8f9" filter="url(#glow)"/>
      <rect x="888" y="24" width="40" height="24" fill="#fbbf24" filter="url(#glow)"/>
      <rect x="16" y="48" width="872" height="8" fill="#164e63"/>
      <rect x="56" y="48" width="832" height="8" fill="#fbbf24"/>
    </g>
    <g font-family="'Courier New', monospace" text-anchor="middle">
      <text x="600" y="274" fill="url(#amber)" font-size="76" font-weight="700" letter-spacing="7">DEPOT</text>
      <text x="600" y="302" fill="#94a3b8" font-size="20" letter-spacing="3">ARMORED PACKAGE CACHE</text>
    </g>
    <rect x="72" y="52" width="1056" height="236" rx="10" fill="none" stroke="url(#cyan)" stroke-opacity="0.35" stroke-width="2"/>
  </g>
</svg>
