<svg xmlns="http://www.w3.org/2000/svg" viewBox="0 0 1200 340" width="1200" height="340" role="img" aria-label="StarMetal - armored registry proxy">
  <title>StarMetal - armored registry proxy</title>
  <defs>
    <linearGradient id="bg" x1="0" y1="0" x2="1" y2="1">
      <stop offset="0%" stop-color="#050814"/>
      <stop offset="52%" stop-color="#090f1d"/>
      <stop offset="100%" stop-color="#0d080d"/>
    </linearGradient>
    <radialGradient id="nebula" cx="50%" cy="46%" r="60%">
      <stop offset="0%" stop-color="#27324f" stop-opacity="0.52"/>
      <stop offset="54%" stop-color="#111827" stop-opacity="0.22"/>
      <stop offset="100%" stop-color="#02030a" stop-opacity="0"/>
    </radialGradient>
    <linearGradient id="name" x1="0" y1="0" x2="0" y2="1">
      <stop offset="0%" stop-color="#ffffff"/>
      <stop offset="28%" stop-color="#dce4ef"/>
      <stop offset="48%" stop-color="#8f9caf"/>
      <stop offset="62%" stop-color="#f6f9fd"/>
      <stop offset="100%" stop-color="#556174"/>
    </linearGradient>
    <linearGradient id="sheen" x1="0" y1="0" x2="1" y2="0">
      <stop offset="0%" stop-color="#ffffff" stop-opacity="0"/>
      <stop offset="48%" stop-color="#ffffff" stop-opacity="0.28"/>
      <stop offset="52%" stop-color="#ffffff" stop-opacity="0.28"/>
      <stop offset="100%" stop-color="#ffffff" stop-opacity="0"/>
    </linearGradient>
    <linearGradient id="rule" x1="0" y1="0" x2="1" y2="0">
      <stop offset="0%" stop-color="#6b7280" stop-opacity="0"/>
      <stop offset="34%" stop-color="#8a3946" stop-opacity="0.72"/>
      <stop offset="66%" stop-color="#3f5f90" stop-opacity="0.72"/>
      <stop offset="100%" stop-color="#6b7280" stop-opacity="0"/>
    </linearGradient>
    <clipPath id="frame">
      <rect width="1200" height="340" rx="18"/>
    </clipPath>
    <clipPath id="panel">
      <rect x="118" y="54" width="964" height="224" rx="10"/>
    </clipPath>
  </defs>
  <g clip-path="url(#frame)">
    <rect width="1200" height="340" fill="url(#bg)"/>
    <rect width="1200" height="340" fill="url(#nebula)"/>
    <rect width="1200" height="340" fill="#01030a" opacity="0.22"/>

    <g fill="#d8dde8" opacity="0.78">
      <circle cx="72" cy="52" r="1.3"/><circle cx="143" cy="133" r="1"/><circle cx="221" cy="73" r="1.2"/>
      <circle cx="319" cy="114" r="1"/><circle cx="401" cy="45" r="1.3"/><circle cx="487" cy="104" r="1"/>
      <circle cx="572" cy="58" r="1.2"/><circle cx="666" cy="92" r="1"/><circle cx="736" cy="42" r="1.3"/>
      <circle cx="831" cy="118" r="1"/><circle cx="921" cy="54" r="1"/><circle cx="1036" cy="86" r="1.3"/>
      <circle cx="1128" cy="142" r="1"/><circle cx="96" cy="232" r="1"/><circle cx="1080" cy="222" r="1.2"/>
      <circle cx="178" cy="291" r="1"/><circle cx="258" cy="38" r="0.9"/><circle cx="360" cy="264" r="1"/>
      <circle cx="538" cy="284" r="0.9"/><circle cx="624" cy="35" r="0.9"/><circle cx="756" cy="286" r="1"/>
      <circle cx="867" cy="258" r="0.9"/><circle cx="973" cy="286" r="1"/><circle cx="1142" cy="244" r="1"/>
    </g>
    <g stroke="#b9c0cf" stroke-width="2" stroke-linecap="square" opacity="0.42">
      <path d="M164 48h20M174 38v20"/><path d="M1010 76h22M1021 65v22"/><path d="M286 194h16M294 186v16"/>
    </g>

    <rect x="118" y="54" width="964" height="224" rx="10" fill="#060b15" opacity="0.72" stroke="#27324f" stroke-width="2"/>
    <g clip-path="url(#panel)" opacity="0.26" stroke-linecap="square">
      <g stroke="#6b7ca3" stroke-width="1">
        <path d="M118 84H1082M118 116H1082M118 148H1082M118 180H1082M118 212H1082M118 244H1082"/>
        <path d="M168 54V278M232 54V278M296 54V278M360 54V278M424 54V278M488 54V278M552 54V278M616 54V278M680 54V278M744 54V278M808 54V278M872 54V278M936 54V278M1000 54V278"/>
      </g>
      <g stroke="#334364" stroke-width="1">
        <path d="M74 278L298 54M154 278L378 54M234 278L458 54M314 278L538 54M394 278L618 54M474 278L698 54M554 278L778 54M634 278L858 54M714 278L938 54M794 278L1018 54M874 278L1098 54"/>
        <path d="M326 54L550 278M406 54L630 278M486 54L710 278M566 54L790 278M646 54L870 278M726 54L950 278M806 54L1030 278M886 54L1110 278"/>
      </g>
    </g>
    <rect x="260" y="220" width="680" height="3" fill="url(#rule)"/>

    <g transform="skewX(-7 600 175)">
      <text x="600" y="186" fill="#03050c" opacity="0.9" font-family="'Arial Black', Impact, sans-serif" font-size="90" font-weight="900" text-anchor="middle" letter-spacing="1">StarMetal</text>
      <text x="600" y="179" fill="url(#name)" stroke="#202838" stroke-width="2" font-family="'Arial Black', Impact, sans-serif" font-size="90" font-weight="900" text-anchor="middle" letter-spacing="1">StarMetal</text>
      <text x="600" y="165" fill="url(#sheen)" font-family="'Arial Black', Impact, sans-serif" font-size="90" font-weight="900" text-anchor="middle" letter-spacing="1">StarMetal</text>
    </g>

    <text x="600" y="257" fill="#b8bfcc" font-family="'Courier New', monospace" font-size="24" font-weight="700" text-anchor="middle" letter-spacing="5">ARMORED REGISTRY PROXY</text>
    <rect width="1200" height="340" rx="18" fill="none" stroke="#25304d" stroke-width="2" opacity="0.72"/>
  </g>
</svg>
